#!OML:ASF I:\Actors\actors\Patient Classification 2\Patient 1\Session 1\actor1.ASF
:FULLY-SPECIFIED
:DEGREES
508
root -0.593678 18.6641 5.92119 0.378337 -2.69415 -4.20663
lowerback 5.44798 0.149231 0.212095
upperback -0.606223 0.225225 0.330288
thorax -3.6813 0.110967 0.202277
lowerneck -10.453 1.99128 2.56597
upperneck 31.0856 1.27856 3.17703
head 11.912 1.25793 0.908768
rclavicle -4.77083e-015 1.19271e-014
rhumerus -53.0509 -6.59977 -76.5684
rradius 48.6495
rwrist 9.5642
rhand -4.26514 -43.7708
rfingers 7.12502
rthumb 21.4993 -72.5976
lclavicle -4.77083e-015 1.19271e-014
lhumerus -21.5332 -33.0236 101.304
lradius 139.642
lwrist 31.5409
lhand -24.3669 -46.3148
lfingers 7.12502
lthumb 2.12298 -16.3456
rfemur 0 0 0
rtibia 0
rfoot 0 0
rtoes 0
lfemur -3.87297 -4.90101 -10.6865
ltibia 23.944
lfoot -24.1464 12.4583
ltoes -55.2971
509
root -0.591579 18.6658 5.91877 0.486392 -2.88454 -4.14941
lowerback 5.4093 0.0592444 0.227274
upperback -0.443005 0.10261 0.251847
thorax -3.4903 0.0490697 0.123408
lowerneck -10.7493 2.35298 3.28193
upperneck 31.6041 1.65443 3.00894
head 12.1978 1.49561 0.785932
rclavicle -8.63471e-015 -1.47101e-014
rhumerus -52.7111 -6.63111 -76.7742
rradius 48.3935
rwrist 9.6731
rhand -4.32784 -44.0011
rfingers 7.12502
rthumb 21.4391 -72.8349
lclavicle -8.63471e-015 -1.47101e-014
lhumerus -25.0843 -29.5372 103.923
lradius 138.973
lwrist 32.7036
lhand -24.4097 -44.6294
lfingers 7.12502
lthumb 2.08166 -14.6598
rfemur 0 0 0
rtibia 0
rfoot 0 0
rtoes 0
lfemur -3.93355 -4.8827 -10.7744
ltibia 23.9247
lfoot -24.2043 12.6085
ltoes -55.2437
510
root -0.589033 18.6668 5.91766 0.552041 -3.07841 -4.03683
lowerback 5.25832 -0.0296652 0.134256
upperback -0.193013 -0.0241376 0.224014
thorax -3.14717 -0.0124676 0.157158
lowerneck -11.0422 2.69401 3.86225
upperneck 31.9325 2.02707 2.86326
head 12.4095 1.7163 0.692523
rclavicle -5.96354e-016 -4.77083e-015
rhumerus -52.2598 -6.6902 -76.8431
rradius 48.1459
rwrist 9.75144
rhand -4.22716 -43.8409
rfingers 7.12502
rthumb 21.5358 -72.6636
lclavicle -5.96354e-016 -4.77083e-015
lhumerus -27.5481 -25.5526 105.317
lradius 138.003
lwrist 33.8735
lhand -24.5582 -42.696
lfingers 7.12502
lthumb 1.93829 -12.7251
rfemur 0 0 0
rtibia 0
rfoot 0 0
rtoes 0
lfemur -3.93896 -4.9505 -10.9434
ltibia 23.9093
lfoot -24.3411 12.7946
ltoes -55.1475
511
root -0.587294 18.6677 5.91461 0.610899 -3.33669 -4.03424
lowerback 4.81974 -0.0889668 0.00252989
upperback 0.254517 -0.109883 0.343738
thorax -2.43949 -0.0531623 0.359254
lowerneck -11.4238 2.99567 4.25175
upperneck 31.9807 2.38405 2.72958
head 12.5237 1.90492 0.632004
rclavicle -1.3418e-015 3.57812e-015
rhumerus -51.5688 -6.71997 -76.7731
rradius 48.0128
rwrist 9.74072
rhand -4.11195 -43.578
rfingers 7.12502
rthumb 21.6465 -72.388
lclavicle -1.3418e-015 3.57812e-015
lhumerus -28.7095 -21.3656 105.423
lradius 136.75
lwrist 35.0235
lhand -24.6931 -40.8211
lfingers 7.12502
lthumb 1.808 -10.849
rfemur 0 0 0
rtibia 0
rfoot 0 0
rtoes 0
lfemur -3.92649 -4.8956 -10.9749
ltibia 23.8907
lfoot -24.4659 12.96
ltoes -55.13
512
root -0.584607 18.6681 5.91279 0.663815 -3.61325 -4.09187
lowerback 5.17887 -0.0355948 0.349584
upperback 0.103221 -0.0195469 0.251072
thorax -2.79728 -0.0129097 0.0635141
lowerneck -11.2734 3.12448 4.74434
upperneck 32.256 2.43265 2.77777
head 12.621 1.99485 0.575617
rclavicle 3.05631e-015 1.98785e-015
rhumerus -52.0476 -7.03149 -76.6704
rradius 48.1376
rwrist 9.72437
rhand -4.20386 -43.6729
rfingers 7.12502
rthumb 21.5582 -72.493
lclavicle 3.05631e-015 1.98785e-015
lhumerus -30.1234 -17.5637 104.539
lradius 135.345
lwrist 36.0095
lhand -25.0806 -38.5921
lfingers 7.12502
lthumb 1.43369 -8.61722
rfemur 0 0 0
rtibia 0
rfoot 0 0
rtoes 0
lfemur -3.90421 -4.70407 -10.9259
ltibia 23.8684
lfoot -24.5199 13.0485
ltoes -55.1355
513
root -0.583203 18.669 5.91222 0.731236 -3.79061 -4.08831
lowerback 4.97067 -0.0827957 0.279779
upperback 0.300533 -0.0848677 0.387656
thorax -2.47724 -0.0435595 0.247336
lowerneck -11.3967 3.30729 5.09403
upperneck 32.3645 2.6726 2.54189
head 12.7084 2.11408 0.46369
rclavicle 2.1419e-014 -9.54166e-015
rhumerus -51.8916 -6.9687 -76.5102
rradius 48.2149
rwrist 9.63154
rhand -4.27993 -43.8496
rfingers 7.12502
rthumb 21.4851 -72.6781
lclavicle 2.1419e-014 -9.54166e-015
lhumerus -30.0151 -13.8907 102.559
lradius 133.511
lwrist 36.6727
lhand -25.661 -35.0345
lfingers 7.12502
lthumb 0.873163 -5.05657
rfemur 0 0 0
rtibia 0
rfoot 0 0
rtoes 0
lfemur -3.92305 -4.59395 -10.9414
ltibia 23.8561
lfoot -24.5554 13.1109
ltoes -55.1099
